<mxfile host="app.diagrams.net" agent="Mozilla/5.0 (Macintosh; Intel Mac OS X 10_15_7) AppleWebKit/537.36 (KHTML, like Gecko) Chrome/124.0.0.0 Safari/537.36" version="24.7.6">
  <diagram name="第 1 页" id="aTtSBf18jvVyrHTJtkX-">
    <mxGraphModel dx="957" dy="639" grid="1" gridSize="10" guides="1" tooltips="1" connect="1" arrows="1" fold="1" page="1" pageScale="1" pageWidth="827" pageHeight="1169" math="0" shadow="0">
      <root>
        <mxCell id="0" />
        <mxCell id="1" parent="0" />
        <mxCell id="q9xzFG4Fn5E-AbLr52OC-2" style="edgeStyle=orthogonalEdgeStyle;rounded=0;orthogonalLoop=1;jettySize=auto;html=1;exitX=0.5;exitY=1;exitDx=0;exitDy=0;entryX=0.5;entryY=0;entryDx=0;entryDy=0;" edge="1" parent="1" source="q9xzFG4Fn5E-AbLr52OC-1" target="q9xzFG4Fn5E-AbLr52OC-3">
          <mxGeometry relative="1" as="geometry">
            <mxPoint x="395" y="310" as="targetPoint" />
          </mxGeometry>
        </mxCell>
        <mxCell id="q9xzFG4Fn5E-AbLr52OC-1" value="Query" style="text;html=1;align=center;verticalAlign=middle;whiteSpace=wrap;rounded=0;" vertex="1" parent="1">
          <mxGeometry x="365" y="220" width="60" height="30" as="geometry" />
        </mxCell>
        <mxCell id="q9xzFG4Fn5E-AbLr52OC-4" style="edgeStyle=orthogonalEdgeStyle;rounded=0;orthogonalLoop=1;jettySize=auto;html=1;exitX=0.5;exitY=1;exitDx=0;exitDy=0;entryX=0.5;entryY=0;entryDx=0;entryDy=0;" edge="1" parent="1" source="q9xzFG4Fn5E-AbLr52OC-3" target="q9xzFG4Fn5E-AbLr52OC-5">
          <mxGeometry relative="1" as="geometry">
            <mxPoint x="305" y="430" as="targetPoint" />
          </mxGeometry>
        </mxCell>
        <mxCell id="q9xzFG4Fn5E-AbLr52OC-9" style="edgeStyle=orthogonalEdgeStyle;rounded=0;orthogonalLoop=1;jettySize=auto;html=1;exitX=0.5;exitY=1;exitDx=0;exitDy=0;entryX=0.5;entryY=0;entryDx=0;entryDy=0;" edge="1" parent="1" source="q9xzFG4Fn5E-AbLr52OC-3" target="q9xzFG4Fn5E-AbLr52OC-7">
          <mxGeometry relative="1" as="geometry" />
        </mxCell>
        <mxCell id="q9xzFG4Fn5E-AbLr52OC-10" style="edgeStyle=orthogonalEdgeStyle;rounded=0;orthogonalLoop=1;jettySize=auto;html=1;exitX=0.5;exitY=1;exitDx=0;exitDy=0;entryX=0.5;entryY=0;entryDx=0;entryDy=0;" edge="1" parent="1" source="q9xzFG4Fn5E-AbLr52OC-3" target="q9xzFG4Fn5E-AbLr52OC-6">
          <mxGeometry relative="1" as="geometry" />
        </mxCell>
        <mxCell id="q9xzFG4Fn5E-AbLr52OC-11" style="edgeStyle=orthogonalEdgeStyle;rounded=0;orthogonalLoop=1;jettySize=auto;html=1;exitX=0.5;exitY=1;exitDx=0;exitDy=0;" edge="1" parent="1" source="q9xzFG4Fn5E-AbLr52OC-3" target="q9xzFG4Fn5E-AbLr52OC-8">
          <mxGeometry relative="1" as="geometry" />
        </mxCell>
        <mxCell id="q9xzFG4Fn5E-AbLr52OC-3" value="意图" style="rhombus;whiteSpace=wrap;html=1;" vertex="1" parent="1">
          <mxGeometry x="355" y="290" width="80" height="80" as="geometry" />
        </mxCell>
        <mxCell id="q9xzFG4Fn5E-AbLr52OC-14" style="edgeStyle=orthogonalEdgeStyle;rounded=0;orthogonalLoop=1;jettySize=auto;html=1;exitX=0.5;exitY=1;exitDx=0;exitDy=0;" edge="1" parent="1" source="q9xzFG4Fn5E-AbLr52OC-5" target="q9xzFG4Fn5E-AbLr52OC-13">
          <mxGeometry relative="1" as="geometry" />
        </mxCell>
        <mxCell id="q9xzFG4Fn5E-AbLr52OC-5" value="知识解答&lt;div&gt;域&lt;/div&gt;" style="rounded=0;whiteSpace=wrap;html=1;" vertex="1" parent="1">
          <mxGeometry x="70" y="470" width="120" height="60" as="geometry" />
        </mxCell>
        <mxCell id="q9xzFG4Fn5E-AbLr52OC-16" style="edgeStyle=orthogonalEdgeStyle;rounded=0;orthogonalLoop=1;jettySize=auto;html=1;exitX=0.5;exitY=1;exitDx=0;exitDy=0;entryX=0.5;entryY=0;entryDx=0;entryDy=0;" edge="1" parent="1" source="q9xzFG4Fn5E-AbLr52OC-6" target="q9xzFG4Fn5E-AbLr52OC-15">
          <mxGeometry relative="1" as="geometry" />
        </mxCell>
        <mxCell id="q9xzFG4Fn5E-AbLr52OC-6" value="SQL生成&lt;div&gt;域&lt;/div&gt;" style="rounded=0;whiteSpace=wrap;html=1;" vertex="1" parent="1">
          <mxGeometry x="254" y="470" width="120" height="60" as="geometry" />
        </mxCell>
        <mxCell id="q9xzFG4Fn5E-AbLr52OC-18" style="edgeStyle=orthogonalEdgeStyle;rounded=0;orthogonalLoop=1;jettySize=auto;html=1;exitX=0.5;exitY=1;exitDx=0;exitDy=0;entryX=0.5;entryY=0;entryDx=0;entryDy=0;" edge="1" parent="1" source="q9xzFG4Fn5E-AbLr52OC-7" target="q9xzFG4Fn5E-AbLr52OC-17">
          <mxGeometry relative="1" as="geometry" />
        </mxCell>
        <mxCell id="q9xzFG4Fn5E-AbLr52OC-7" value="SQL补全&lt;div&gt;域&lt;/div&gt;" style="rounded=0;whiteSpace=wrap;html=1;" vertex="1" parent="1">
          <mxGeometry x="430" y="470" width="120" height="60" as="geometry" />
        </mxCell>
        <mxCell id="q9xzFG4Fn5E-AbLr52OC-20" style="edgeStyle=orthogonalEdgeStyle;rounded=0;orthogonalLoop=1;jettySize=auto;html=1;exitX=0.5;exitY=1;exitDx=0;exitDy=0;entryX=0.5;entryY=0;entryDx=0;entryDy=0;" edge="1" parent="1" source="q9xzFG4Fn5E-AbLr52OC-8" target="q9xzFG4Fn5E-AbLr52OC-19">
          <mxGeometry relative="1" as="geometry" />
        </mxCell>
        <mxCell id="q9xzFG4Fn5E-AbLr52OC-8" value="模型解答&lt;div&gt;域&lt;/div&gt;" style="rounded=0;whiteSpace=wrap;html=1;" vertex="1" parent="1">
          <mxGeometry x="600" y="470" width="120" height="60" as="geometry" />
        </mxCell>
        <mxCell id="q9xzFG4Fn5E-AbLr52OC-13" value="意图" style="rhombus;whiteSpace=wrap;html=1;" vertex="1" parent="1">
          <mxGeometry x="90" y="575" width="80" height="80" as="geometry" />
        </mxCell>
        <mxCell id="q9xzFG4Fn5E-AbLr52OC-15" value="意图" style="rhombus;whiteSpace=wrap;html=1;" vertex="1" parent="1">
          <mxGeometry x="274" y="575" width="80" height="80" as="geometry" />
        </mxCell>
        <mxCell id="q9xzFG4Fn5E-AbLr52OC-17" value="意图" style="rhombus;whiteSpace=wrap;html=1;" vertex="1" parent="1">
          <mxGeometry x="450" y="575" width="80" height="80" as="geometry" />
        </mxCell>
        <mxCell id="q9xzFG4Fn5E-AbLr52OC-19" value="意图" style="rhombus;whiteSpace=wrap;html=1;" vertex="1" parent="1">
          <mxGeometry x="620" y="575" width="80" height="80" as="geometry" />
        </mxCell>
      </root>
    </mxGraphModel>
  </diagram>
</mxfile>
